<?xml version="1.0" encoding="UTF-8"?>
<!DOCTYPE svg PUBLIC "-//W3C//DTD SVG 1.1//EN" "http://www.w3.org/Graphics/SVG/1.1/DTD/svg11.dtd">
<!-- Creator: CorelDRAW -->
<svg xmlns="http://www.w3.org/2000/svg" xml:space="preserve" width="1125px" height="306px" version="1.1" style="shape-rendering:geometricPrecision; text-rendering:geometricPrecision; image-rendering:optimizeQuality; fill-rule:evenodd; clip-rule:evenodd"
viewBox="0 0 691.64 188.02"
 xmlns:xlink="http://www.w3.org/1999/xlink"
 xmlns:xodm="http://www.corel.com/coreldraw/odm/2003">
 <defs>
  <style type="text/css">
   <![CDATA[
    .fil0 {fill:none}
    .fil3 {fill:#0078D4}
    .fil2 {fill:#0D62AB}
    .fil4 {fill:#199BE2}
    .fil5 {fill:#35C1F1}
    .fil6 {fill:#50E6FF}
    .fil1 {fill:black;fill-rule:nonzero}
   ]]>
  </style>
 </defs>
 <g id="Layer_x0020_1">
  <metadata id="CorelCorpID_0Corel-Layer"/>
  <rect class="fil0" width="691.64" height="188.02"/>
  <g id="_1508123504">
   <path class="fil1" d="M301.32 51.15c-2,0.16 -4.99,-0.14 -8.99,-0.9 -3.99,-0.75 -8.62,-1.73 -13.89,-2.93l-0.6 1.2c0,0.08 0.02,0.16 0.06,0.24 0.04,0.08 0.02,0.2 -0.06,0.36 -2,4.63 -4.1,9.88 -6.29,15.75 -2.2,5.87 -4.34,12.04 -6.41,18.51 -2.08,6.47 -4.04,13.12 -5.88,19.95 -1.83,6.83 -3.41,13.56 -4.73,20.19 -1.32,6.63 -2.34,13.04 -3.05,19.23 -0.72,6.2 -0.96,11.85 -0.72,16.96 -0.4,0.24 -1.16,0.02 -2.28,-0.66 -1.12,-0.68 -2.26,-1.52 -3.41,-2.52 -1.16,-0.99 -2.22,-2.01 -3.18,-3.05 -0.96,-1.04 -1.44,-1.84 -1.44,-2.4 0.24,-4.47 0.82,-9.48 1.74,-15.03 0.92,-5.56 2.08,-11.35 3.47,-17.38 1.4,-6.03 2.96,-12.1 4.68,-18.21 1.72,-6.11 3.49,-12.02 5.33,-17.73 1.84,-5.72 3.65,-11.03 5.45,-15.94 1.8,-4.91 3.46,-9.13 4.97,-12.64l0 -0.36c0.64,-1.36 1.32,-2.72 2.04,-4.07 0.72,-1.36 1.48,-2.72 2.28,-4.08 -5.27,-1.2 -10.79,-2.41 -16.54,-3.65 -5.75,-1.24 -11.4,-2.34 -16.95,-3.3 -5.55,-0.96 -10.81,-1.7 -15.76,-2.21 -4.95,-0.52 -9.3,-0.66 -13.06,-0.42 -3.11,0.16 -5.71,0.83 -7.79,2.03 -2.07,1.2 -3.61,2.68 -4.61,4.44 -1,1.75 -1.46,3.69 -1.38,5.81 0.08,2.11 0.72,4.17 1.92,6.17 2,3.35 4.47,5.99 7.43,7.91 2.95,1.91 5.93,3.35 8.92,4.31 3,0.96 5.84,1.54 8.51,1.74 2.68,0.2 4.73,0.3 6.17,0.3 1.68,0 3.56,-0.24 5.63,-0.72 2.08,-0.48 4.12,-1.24 6.11,-2.28 2,-1.04 3.88,-2.32 5.64,-3.83 1.75,-1.52 3.19,-3.32 4.31,-5.39 -0.56,2.95 -1.52,5.51 -2.88,7.66 -1.35,2.16 -2.89,3.94 -4.61,5.34 -1.72,1.39 -3.57,2.45 -5.57,3.17 -2,0.72 -3.91,1.12 -5.75,1.2 -2.96,0.24 -6.31,0.06 -10.07,-0.54 -3.75,-0.6 -7.53,-1.72 -11.32,-3.36 -3.79,-1.63 -7.41,-3.79 -10.84,-6.47 -3.44,-2.67 -6.31,-5.97 -8.63,-9.88 -1.92,-3.2 -3.02,-6.31 -3.3,-9.35 -0.28,-3.03 0.2,-5.73 1.44,-8.08 1.24,-2.36 3.26,-4.28 6.05,-5.76 2.8,-1.47 6.27,-2.25 10.43,-2.33 4.55,-0.08 9.72,0.28 15.51,1.08 5.8,0.8 11.79,1.85 17.98,3.17 6.19,1.32 12.4,2.78 18.63,4.38 6.23,1.59 12.06,3.07 17.49,4.43 2.08,-2.4 4.5,-4.38 7.25,-5.93 2.76,-1.56 6.05,-2.34 9.89,-2.34 5.99,-0.08 10.74,0.78 14.25,2.58 3.52,1.79 5.76,3.81 6.71,6.05 0.96,2.23 0.6,4.33 -1.07,6.29 -1.68,1.96 -4.76,3.05 -9.23,3.29zm-6.47 -12.7c-2.72,0.16 -5.11,0.66 -7.19,1.5 -2.08,0.84 -3.91,1.94 -5.51,3.29 3.67,0.88 6.87,1.54 9.58,1.98 2.72,0.44 4.88,0.58 6.48,0.42 2.79,-0.16 4.91,-0.66 6.35,-1.5 1.43,-0.83 2.05,-1.71 1.85,-2.63 -0.2,-0.92 -1.22,-1.7 -3.05,-2.34 -1.84,-0.64 -4.68,-0.88 -8.51,-0.72z"/>
   <path id="_1" class="fil1" d="M293.05 65.65c-1.44,3.44 -3.11,7.09 -5.03,10.97 -1.92,3.87 -3.75,8 -5.51,12.4 -1.76,4.39 -3.32,9.04 -4.67,13.95 -1.36,4.92 -2.28,10.09 -2.76,15.52 1.2,-2.4 2.2,-4.63 2.99,-6.71 0.8,-2.08 1.62,-4.07 2.46,-5.99 0.84,-1.92 1.84,-3.79 3,-5.63 1.16,-1.84 2.69,-3.72 4.61,-5.63 0.16,-0.16 0.5,-0.56 1.02,-1.2 0.52,-0.64 1.18,-1.36 1.98,-2.16 0.79,-0.8 1.67,-1.55 2.63,-2.27 0.96,-0.72 1.94,-1.2 2.94,-1.44 1,-0.24 2.01,-0.16 3.05,0.24 1.04,0.4 2,1.32 2.88,2.75 0.32,0.56 0.46,1.36 0.42,2.4 -0.04,1.04 -0.14,2.14 -0.3,3.3 -0.16,1.15 -0.38,2.23 -0.66,3.23 -0.28,1 -0.5,1.74 -0.66,2.22 -0.56,1.67 -1.02,3.43 -1.38,5.27 -0.36,1.84 -0.86,4.19 -1.5,7.07 -0.79,2.95 -1.01,5.05 -0.65,6.29 0.35,1.24 1.05,1.9 2.09,1.98 1.04,0.08 2.24,-0.36 3.6,-1.32 1.35,-0.96 2.67,-2.2 3.95,-3.72 1.04,-1.19 2.12,-2.53 3.24,-4.01 1.11,-1.48 2.11,-2.86 2.99,-4.13 0.88,-1.28 1.6,-2.34 2.16,-3.18 0.56,-0.84 0.8,-1.22 0.72,-1.14 1.19,1.36 1.85,2.74 1.97,4.14 0.12,1.39 -0.04,2.71 -0.48,3.95 -0.43,1.24 -0.99,2.36 -1.67,3.36 -0.68,0.99 -1.18,1.73 -1.5,2.21 -0.48,0.8 -1.26,1.82 -2.34,3.06 -1.08,1.24 -2.27,2.43 -3.59,3.59 -1.32,1.16 -2.7,2.16 -4.14,3 -1.43,0.84 -2.79,1.26 -4.07,1.26 -1.28,0 -2.52,-0.4 -3.71,-1.2 -1.2,-0.8 -2.28,-1.82 -3.24,-3.06 -0.96,-1.24 -1.68,-2.61 -2.16,-4.13 -0.47,-1.52 -0.63,-3 -0.47,-4.44 0.23,-1.75 0.45,-3.41 0.65,-4.97 0.2,-1.56 0.46,-3.09 0.78,-4.61 0.32,-1.52 0.72,-3.06 1.2,-4.61 0.48,-1.56 1.12,-3.22 1.92,-4.98 -1.44,1.12 -3.18,2.86 -5.21,5.22 -2.04,2.35 -4.08,4.95 -6.11,7.78 -2.04,2.84 -3.94,5.76 -5.7,8.75 -1.75,3 -3.11,5.69 -4.07,8.09 -0.24,0.72 -0.7,1.18 -1.38,1.38 -0.68,0.2 -1.36,0.12 -2.03,-0.24 -0.68,-0.36 -1.3,-0.98 -1.86,-1.86 -0.56,-0.88 -0.84,-2.04 -0.84,-3.48 -0.08,-2.23 0,-4.67 0.24,-7.3 0.24,-2.64 0.56,-5.22 0.96,-7.73 0.4,-2.52 0.82,-4.78 1.26,-6.77 0.43,-2 0.77,-3.44 1.01,-4.32 1.44,-4.07 2.96,-8.04 4.56,-11.92 1.59,-3.87 3.11,-7.49 4.55,-10.84 1.44,-3.36 2.74,-6.35 3.89,-8.99 1.16,-2.63 2.06,-4.75 2.7,-6.35 0.48,-1.12 1.12,-1.7 1.92,-1.74 0.8,-0.04 1.75,0.98 2.87,3.06 0.48,0.8 0.82,1.44 1.02,1.92 0.2,0.48 0.3,0.92 0.3,1.31 0,0.4 -0.08,0.78 -0.24,1.14 -0.16,0.36 -0.36,0.78 -0.6,1.26z"/>
   <path id="_2" class="fil1" d="M345.89 104.71c1.28,1.76 1.88,3.48 1.8,5.15 -0.08,1.68 -0.5,3.26 -1.26,4.74 -0.76,1.48 -1.66,2.81 -2.69,4.01 -1.04,1.2 -1.88,2.2 -2.52,3 -1.6,1.91 -3.49,3.59 -5.69,5.03 -2.2,1.44 -4.81,2.12 -7.85,2.04 -1.2,0 -2.4,-0.12 -3.59,-0.36 -1.2,-0.24 -2.38,-0.62 -3.54,-1.14 -1.16,-0.52 -2.22,-1.26 -3.17,-2.22 -0.96,-0.96 -1.8,-2.24 -2.52,-3.83 -0.48,-1.36 -0.8,-2.66 -0.96,-3.9 -0.16,-1.23 -0.32,-2.69 -0.48,-4.37 0,-2.48 0.5,-5.15 1.5,-8.03 1,-2.87 2.34,-5.55 4.01,-8.03 1.68,-2.47 3.58,-4.53 5.69,-6.17 2.12,-1.63 4.34,-2.45 6.65,-2.45 1.44,0 2.9,0.46 4.38,1.37 1.48,0.92 2.65,2.12 3.53,3.6 0.88,1.48 1.32,3.13 1.32,4.97 0,1.84 -0.76,3.64 -2.28,5.39 -2.47,2.88 -5.29,5.08 -8.44,6.59 -3.16,1.52 -6.53,2.72 -10.13,3.6 -0.16,1.04 -0.22,2.02 -0.18,2.93 0.04,0.92 0.3,1.78 0.78,2.58 1.12,2.8 3.48,3.79 7.07,3 2.08,-0.56 3.95,-1.4 5.63,-2.52 1.68,-1.12 3.26,-2.46 4.74,-4.01 1.47,-1.56 2.87,-3.28 4.19,-5.16 1.32,-1.87 2.65,-3.81 4.01,-5.81zm-11.98 -10.78c-0.8,0 -1.76,0.42 -2.87,1.26 -1.12,0.84 -2.26,1.91 -3.42,3.23 -1.16,1.32 -2.32,2.84 -3.47,4.55 -1.16,1.72 -2.14,3.46 -2.94,5.22 2.48,-0.96 4.83,-2.22 7.07,-3.78 2.24,-1.55 3.99,-3.25 5.27,-5.09 0.16,-0.24 0.46,-0.66 0.9,-1.26 0.44,-0.6 0.78,-1.2 1.02,-1.79 0.24,-0.6 0.28,-1.14 0.12,-1.62 -0.16,-0.48 -0.72,-0.72 -1.68,-0.72z"/>
   <path id="_3" class="fil1" d="M366.14 104.95c-1.28,0.56 -2.49,0.7 -3.65,0.42 -1.16,-0.28 -2.42,-0.78 -3.78,-1.5 0.32,-0.32 0.92,-1.01 1.8,-2.09 0.88,-1.08 1.68,-2.2 2.4,-3.36 0.72,-1.16 1.16,-2.15 1.32,-2.99 0.15,-0.84 -0.24,-1.26 -1.2,-1.26 -1.28,0.08 -2.8,1.04 -4.56,2.87 -1.75,1.84 -3.35,4.04 -4.79,6.59 -1.44,2.56 -2.5,5.26 -3.17,8.09 -0.68,2.84 -0.54,5.29 0.42,7.37 0.63,1.28 1.43,2.22 2.39,2.82 0.96,0.6 2.36,0.69 4.2,0.3 2.07,-0.56 3.95,-1.4 5.63,-2.52 1.67,-1.12 3.25,-2.46 4.73,-4.01 1.48,-1.56 2.88,-3.28 4.19,-5.16 1.32,-1.87 2.66,-3.81 4.02,-5.81 1.28,1.76 1.87,3.48 1.79,5.15 -0.08,1.68 -0.5,3.26 -1.25,4.74 -0.76,1.48 -1.66,2.81 -2.7,4.01 -1.04,1.2 -1.88,2.2 -2.52,3 -1.59,1.91 -3.49,3.59 -5.69,5.03 -2.19,1.44 -4.81,2.12 -7.85,2.04 -2.31,-0.08 -4.31,-0.58 -5.99,-1.5 -1.67,-0.92 -3.09,-2.12 -4.25,-3.6 -1.16,-1.47 -2.08,-3.15 -2.76,-5.03 -0.67,-1.88 -1.09,-3.77 -1.25,-5.69 0,-2.48 0.48,-5.15 1.43,-8.03 0.96,-2.87 2.26,-5.53 3.9,-7.97 1.64,-2.43 3.49,-4.45 5.57,-6.05 2.08,-1.59 4.23,-2.43 6.47,-2.51 1.12,-0.08 2.36,0.24 3.71,0.96 1.36,0.71 2.48,1.83 3.36,3.35 0.88,1.44 1.38,2.74 1.5,3.89 0.12,1.16 0.02,2.24 -0.3,3.24 -0.32,1 -0.78,1.92 -1.38,2.76 -0.6,0.83 -1.18,1.65 -1.74,2.45z"/>
   <path id="_4" class="fil1" d="M397.41 65.65c-1.43,3.44 -3.11,7.09 -5.03,10.97 -1.92,3.87 -3.75,8 -5.51,12.4 -1.76,4.39 -3.31,9.04 -4.67,13.95 -1.36,4.92 -2.28,10.09 -2.76,15.52 1.2,-2.4 2.2,-4.63 3,-6.71 0.8,-2.08 1.61,-4.07 2.45,-5.99 0.84,-1.92 1.84,-3.79 3,-5.63 1.16,-1.84 2.69,-3.72 4.61,-5.63 0.16,-0.16 0.5,-0.56 1.02,-1.2 0.52,-0.64 1.18,-1.36 1.98,-2.16 0.8,-0.8 1.68,-1.55 2.63,-2.27 0.96,-0.72 1.94,-1.2 2.94,-1.44 1,-0.24 2.02,-0.16 3.05,0.24 1.04,0.4 2,1.32 2.88,2.75 0.32,0.56 0.46,1.36 0.42,2.4 -0.04,1.04 -0.14,2.14 -0.3,3.3 -0.16,1.15 -0.38,2.23 -0.66,3.23 -0.28,1 -0.5,1.74 -0.66,2.22 -0.56,1.67 -1.02,3.43 -1.38,5.27 -0.36,1.84 -0.85,4.19 -1.49,7.07 -0.8,2.95 -1.02,5.05 -0.66,6.29 0.36,1.24 1.06,1.9 2.09,1.98 1.04,0.08 2.24,-0.36 3.6,-1.32 1.36,-0.96 2.67,-2.2 3.95,-3.72 1.04,-1.19 2.12,-2.53 3.24,-4.01 1.12,-1.48 2.11,-2.86 2.99,-4.13 0.88,-1.28 1.6,-2.34 2.16,-3.18 0.56,-0.84 0.8,-1.22 0.72,-1.14 1.2,1.36 1.86,2.74 1.98,4.14 0.12,1.39 -0.04,2.71 -0.48,3.95 -0.44,1.24 -1,2.36 -1.68,3.36 -0.68,0.99 -1.18,1.73 -1.5,2.21 -0.48,0.8 -1.26,1.82 -2.34,3.06 -1.07,1.24 -2.27,2.43 -3.59,3.59 -1.32,1.16 -2.7,2.16 -4.13,3 -1.44,0.84 -2.8,1.26 -4.08,1.26 -1.28,0 -2.51,-0.4 -3.71,-1.2 -1.2,-0.8 -2.28,-1.82 -3.24,-3.06 -0.95,-1.24 -1.67,-2.61 -2.15,-4.13 -0.48,-1.52 -0.64,-3 -0.48,-4.44 0.24,-1.75 0.46,-3.41 0.66,-4.97 0.2,-1.56 0.46,-3.09 0.78,-4.61 0.31,-1.52 0.71,-3.06 1.19,-4.61 0.48,-1.56 1.12,-3.22 1.92,-4.98 -1.44,1.12 -3.17,2.86 -5.21,5.22 -2.04,2.35 -4.08,4.95 -6.11,7.78 -2.04,2.84 -3.94,5.76 -5.69,8.75 -1.76,3 -3.12,5.69 -4.08,8.09 -0.24,0.72 -0.7,1.18 -1.38,1.38 -0.67,0.2 -1.35,0.12 -2.03,-0.24 -0.68,-0.36 -1.3,-0.98 -1.86,-1.86 -0.56,-0.88 -0.84,-2.04 -0.84,-3.48 -0.08,-2.23 0,-4.67 0.24,-7.3 0.24,-2.64 0.56,-5.22 0.96,-7.73 0.4,-2.52 0.82,-4.78 1.26,-6.77 0.44,-2 0.78,-3.44 1.02,-4.32 1.43,-4.07 2.95,-8.04 4.55,-11.92 1.6,-3.87 3.11,-7.49 4.55,-10.84 1.44,-3.36 2.74,-6.35 3.9,-8.99 1.16,-2.63 2.05,-4.75 2.69,-6.35 0.48,-1.12 1.12,-1.7 1.92,-1.74 0.8,-0.04 1.76,0.98 2.88,3.06 0.47,0.8 0.81,1.44 1.01,1.92 0.2,0.48 0.3,0.92 0.3,1.31 0,0.4 -0.08,0.78 -0.24,1.14 -0.16,0.36 -0.36,0.78 -0.6,1.26z"/>
   <path id="_5" class="fil1" d="M461.52 104.71c1.2,1.36 1.86,2.74 1.98,4.14 0.11,1.39 -0.04,2.71 -0.48,3.95 -0.44,1.24 -1,2.36 -1.68,3.36 -0.68,0.99 -1.18,1.73 -1.5,2.21 -0.56,0.8 -1.24,1.8 -2.04,3 -0.8,1.19 -1.71,2.33 -2.75,3.41 -1.04,1.08 -2.16,2.02 -3.36,2.82 -1.2,0.8 -2.43,1.16 -3.71,1.08 -1.2,0 -2.32,-0.36 -3.36,-1.08 -1.04,-0.72 -1.93,-1.6 -2.69,-2.64 -0.76,-1.04 -1.36,-2.16 -1.8,-3.35 -0.44,-1.2 -0.7,-2.36 -0.78,-3.48 0,-0.72 -0.02,-1.48 -0.06,-2.27 -0.04,-0.8 -0.1,-1.56 -0.18,-2.28 -0.72,2.16 -1.56,4.31 -2.51,6.47 -0.96,2.16 -2.06,3.99 -3.3,5.51 -1.24,1.52 -2.62,2.52 -4.13,3 -1.52,0.48 -3.24,0.12 -5.16,-1.08 -2.15,-1.44 -3.71,-3.4 -4.67,-5.87 -0.96,-2.48 -1.42,-5.16 -1.38,-8.03 0.04,-2.88 0.52,-5.81 1.44,-8.81 0.92,-2.99 2.16,-5.71 3.72,-8.15 1.55,-2.43 3.37,-4.45 5.45,-6.05 2.07,-1.59 4.31,-2.47 6.71,-2.63 1.28,0 2.61,0.44 4.01,1.32 1.4,0.87 2.54,2.35 3.42,4.43l0.72 -2.16c0.15,-0.4 0.59,-0.36 1.31,0.12 0.72,0.48 1.46,1.14 2.22,1.98 0.76,0.84 1.44,1.66 2.04,2.46 0.6,0.79 0.86,1.31 0.78,1.55 -0.48,1.2 -0.94,2.54 -1.38,4.02 -0.44,1.47 -0.84,2.95 -1.2,4.43 -0.36,1.48 -0.7,2.9 -1.02,4.25 -0.32,1.36 -0.52,2.56 -0.6,3.6 -0.48,3.51 -0.12,5.71 1.08,6.59 0.56,0.64 1.36,0.58 2.4,-0.18 1.04,-0.76 2.15,-1.82 3.35,-3.18 1.12,-1.19 2.24,-2.51 3.36,-3.95 1.11,-1.44 2.11,-2.8 2.99,-4.07 0.88,-1.28 1.58,-2.36 2.1,-3.24 0.52,-0.88 0.74,-1.28 0.66,-1.2zm-35.35 17.26c0.48,0.16 1.14,-0.2 1.98,-1.08 0.84,-0.88 1.78,-2.02 2.81,-3.42 1.04,-1.39 2.1,-2.99 3.18,-4.79 1.08,-1.8 2.1,-3.55 3.05,-5.27 0.96,-1.72 1.78,-3.28 2.46,-4.67 0.68,-1.4 1.14,-2.46 1.38,-3.18l0.12 -1.56c0.16,-0.72 0.1,-1.48 -0.18,-2.27 -0.28,-0.8 -0.62,-1.36 -1.02,-1.68 -0.72,-0.56 -1.6,-0.68 -2.64,-0.36 -1.03,0.32 -2.13,0.94 -3.29,1.86 -1.16,0.92 -2.32,2.07 -3.48,3.47 -1.15,1.4 -2.17,2.86 -3.05,4.37 -0.88,1.76 -1.6,3.66 -2.16,5.7 -0.56,2.03 -0.92,3.95 -1.08,5.75 -0.16,1.79 -0.1,3.35 0.18,4.67 0.28,1.32 0.86,2.14 1.74,2.46z"/>
   <path id="_6" class="fil1" d="M492.31 119.57c-0.8,0.96 -1.54,1.88 -2.22,2.76 -0.67,0.87 -1.45,1.75 -2.33,2.63 -0.88,0.88 -2.02,1.72 -3.42,2.52 -1.39,0.8 -2.89,1.16 -4.49,1.08 -2.08,-0.16 -3.83,-0.86 -5.27,-2.1 -1.44,-1.24 -2.52,-2.66 -3.24,-4.25 -0.72,-1.68 -1,-3.36 -0.84,-5.04 0.24,-2.23 0.76,-4.35 1.56,-6.35 0.8,-1.99 1.68,-4.11 2.64,-6.35 0.08,-0.24 0.28,-0.64 0.6,-1.2 0.32,-0.56 0.5,-1.17 0.54,-1.85 0.04,-0.68 -0.2,-1.38 -0.72,-2.1 -0.52,-0.72 -1.54,-1.36 -3.06,-1.92 -0.64,0.96 -1.16,1.9 -1.56,2.82 -0.39,0.92 -0.91,1.82 -1.55,2.69 -0.8,1.44 -1.48,2.72 -2.04,3.84 -0.56,1.12 -1.12,2.2 -1.68,3.23 -0.56,1.04 -1.18,2.14 -1.85,3.3 -0.68,1.16 -1.54,2.54 -2.58,4.13 -0.96,-2.15 -1.54,-3.81 -1.74,-4.97 -0.2,-1.16 0.06,-2.62 0.78,-4.37 0.72,-2.08 1.64,-3.94 2.76,-5.57 1.11,-1.64 2.23,-3.62 3.35,-5.94l1.08 -2.15c-1.6,-1.68 -2.58,-3.58 -2.94,-5.69 -0.36,-2.12 -0.3,-4.12 0.18,-5.99 0.48,-1.88 1.26,-3.46 2.34,-4.74 1.08,-1.28 2.22,-1.91 3.42,-1.91 2.15,-0.16 3.91,0.51 5.27,2.03 1.35,1.52 1.99,3.24 1.91,5.15 -0.16,0.88 -0.49,2.28 -1.01,4.2 -0.52,1.92 -1.18,3.91 -1.98,5.99 0.4,0.16 0.84,0.36 1.32,0.6 0.48,0.24 0.92,0.48 1.31,0.72 2.64,1.67 4.48,3.39 5.52,5.15 1.03,1.76 1.35,3.19 0.95,4.31l-5.39 12.94c-0.4,0.96 -0.56,1.82 -0.48,2.58 0.08,0.76 0.34,1.34 0.78,1.74 0.44,0.4 1.02,0.58 1.74,0.54 0.72,-0.04 1.56,-0.38 2.52,-1.02 1.11,-0.72 2.23,-1.82 3.35,-3.3 1.12,-1.47 2.24,-2.85 3.36,-4.13 0.72,-1.2 1.45,-2.34 2.21,-3.42 0.76,-1.07 1.4,-2.03 1.92,-2.87 0.52,-0.84 0.94,-1.5 1.26,-1.98 0.32,-0.48 0.44,-0.72 0.36,-0.72 1.28,1.12 1.97,2.36 2.09,3.72 0.12,1.35 -0.06,2.73 -0.54,4.13 -0.47,1.4 -1.13,2.74 -1.97,4.01 -0.84,1.28 -1.58,2.32 -2.22,3.12zm-20.97 -38.1c-0.16,0 -0.46,0.42 -0.9,1.26 -0.44,0.83 -0.85,1.79 -1.25,2.87 -0.4,1.08 -0.64,2.14 -0.72,3.18 -0.08,1.03 0.16,1.71 0.72,2.03 0.32,-0.72 0.7,-1.59 1.13,-2.63 0.44,-1.04 0.78,-2.08 1.02,-3.12 0.24,-1.04 0.38,-1.9 0.42,-2.57 0.04,-0.68 -0.1,-1.02 -0.42,-1.02z"/>
   <path id="_7" class="fil1" d="M497.1 70.32c1.28,-0.31 2.64,-0.61 4.08,-0.89 1.44,-0.28 3.07,-0.54 4.91,-0.78l5.03 -11.51c0.4,-1.11 1.02,-1.67 1.86,-1.67 0.84,0 1.82,1 2.94,2.99 0.47,0.8 0.79,1.46 0.95,1.98 0.16,0.52 0.24,0.96 0.24,1.32 0,0.36 -0.08,0.72 -0.24,1.08 -0.16,0.36 -0.36,0.77 -0.59,1.25 -0.16,0.48 -0.38,1.08 -0.66,1.8 -0.28,0.72 -0.7,1.52 -1.26,2.4 3.35,0 7.07,0.12 11.14,0.36 1.36,0.16 2.56,0.5 3.6,1.02 1.03,0.51 1.83,1.07 2.39,1.67 0.56,0.6 0.8,1.16 0.72,1.68 -0.08,0.52 -0.56,0.82 -1.44,0.9 -3.43,0.24 -6.87,0.46 -10.3,0.66 -3.44,0.2 -6.35,0.38 -8.75,0.54 -1.04,2.55 -2.15,5.33 -3.35,8.32 -1.2,3 -2.34,6.04 -3.42,9.11 -1.08,3.08 -2.07,6.09 -2.99,9.05 -0.92,2.95 -1.64,5.67 -2.16,8.14 -0.52,2.48 -0.8,4.66 -0.84,6.54 -0.04,1.87 0.26,3.25 0.9,4.13 0.56,0.64 1.4,0.6 2.52,-0.12 1.11,-0.72 2.27,-1.76 3.47,-3.12 1.12,-1.19 2.24,-2.53 3.36,-4.01 1.11,-1.48 2.11,-2.86 2.99,-4.13 0.88,-1.28 1.58,-2.36 2.1,-3.24 0.52,-0.88 0.74,-1.28 0.66,-1.2 1.2,1.36 1.83,2.76 1.91,4.2 0.08,1.43 -0.08,2.77 -0.48,4.01 -0.39,1.24 -0.93,2.34 -1.61,3.29 -0.68,0.96 -1.22,1.68 -1.62,2.16 -0.48,0.8 -1.14,1.8 -1.98,3 -0.84,1.2 -1.75,2.35 -2.75,3.47 -1,1.12 -2.1,2.06 -3.3,2.82 -1.2,0.76 -2.43,1.14 -3.71,1.14 -1.2,0 -2.28,-0.34 -3.24,-1.02 -0.96,-0.68 -1.79,-1.52 -2.51,-2.52 -0.72,-1 -1.34,-2.12 -1.86,-3.35 -0.52,-1.24 -0.9,-2.46 -1.14,-3.66 -0.48,-2.15 -0.44,-4.97 0.12,-8.45 0.56,-3.47 1.4,-7.2 2.52,-11.2 1.12,-3.99 2.45,-8.13 4.01,-12.4 1.56,-4.27 3.14,-8.29 4.73,-12.04 -1.03,0.64 -1.77,1.24 -2.21,1.8 -0.44,0.56 -0.74,0.91 -0.9,1.07 -1.2,0.56 -2.22,0.56 -3.06,0 -0.84,-0.55 -1.45,-1.27 -1.85,-2.15 -0.4,-0.88 -0.52,-1.78 -0.36,-2.7 0.16,-0.92 0.64,-1.5 1.43,-1.74z"/>
   <path id="_8" class="fil1" d="M517.11 70.32c1.28,-0.31 2.64,-0.61 4.08,-0.89 1.44,-0.28 3.07,-0.54 4.91,-0.78l5.03 -11.51c0.4,-1.11 1.02,-1.67 1.86,-1.67 0.84,0 1.82,1 2.94,2.99 0.47,0.8 0.79,1.46 0.95,1.98 0.16,0.52 0.24,0.96 0.24,1.32 0,0.36 -0.08,0.72 -0.24,1.08 -0.16,0.36 -0.36,0.77 -0.59,1.25 -0.16,0.48 -0.38,1.08 -0.66,1.8 -0.28,0.72 -0.7,1.52 -1.26,2.4 3.35,0 7.07,0.12 11.14,0.36 1.36,0.16 2.56,0.5 3.6,1.02 1.03,0.51 1.83,1.07 2.39,1.67 0.56,0.6 0.8,1.16 0.72,1.68 -0.08,0.52 -0.56,0.82 -1.44,0.9 -3.43,0.24 -6.87,0.46 -10.3,0.66 -3.44,0.2 -6.35,0.38 -8.75,0.54 -1.04,2.55 -2.15,5.33 -3.35,8.32 -1.2,3 -2.34,6.04 -3.42,9.11 -1.08,3.08 -2.07,6.09 -2.99,9.05 -0.92,2.95 -1.64,5.67 -2.16,8.14 -0.52,2.48 -0.8,4.66 -0.84,6.54 -0.04,1.87 0.26,3.25 0.9,4.13 0.56,0.64 1.4,0.6 2.52,-0.12 1.11,-0.72 2.27,-1.76 3.47,-3.12 1.12,-1.19 2.24,-2.53 3.36,-4.01 1.11,-1.48 2.11,-2.86 2.99,-4.13 0.88,-1.28 1.58,-2.36 2.1,-3.24 0.52,-0.88 0.74,-1.28 0.66,-1.2 1.2,1.36 1.83,2.76 1.91,4.2 0.08,1.43 -0.08,2.77 -0.48,4.01 -0.39,1.24 -0.93,2.34 -1.61,3.29 -0.68,0.96 -1.22,1.68 -1.62,2.16 -0.48,0.8 -1.14,1.8 -1.98,3 -0.84,1.2 -1.75,2.35 -2.75,3.47 -1,1.12 -2.1,2.06 -3.3,2.82 -1.2,0.76 -2.43,1.14 -3.71,1.14 -1.2,0 -2.28,-0.34 -3.24,-1.02 -0.96,-0.68 -1.8,-1.52 -2.51,-2.52 -0.72,-1 -1.34,-2.12 -1.86,-3.35 -0.52,-1.24 -0.9,-2.46 -1.14,-3.66 -0.48,-2.15 -0.44,-4.97 0.12,-8.45 0.56,-3.47 1.4,-7.2 2.52,-11.2 1.11,-3.99 2.45,-8.13 4.01,-12.4 1.56,-4.27 3.14,-8.29 4.73,-12.04 -1.03,0.64 -1.77,1.24 -2.21,1.8 -0.44,0.56 -0.74,0.91 -0.9,1.07 -1.2,0.56 -2.22,0.56 -3.06,0 -0.84,-0.55 -1.46,-1.27 -1.85,-2.15 -0.4,-0.88 -0.52,-1.78 -0.36,-2.7 0.16,-0.92 0.64,-1.5 1.43,-1.74z"/>
   <path id="_9" class="fil1" d="M547.31 88.06c0.88,-0.16 1.94,-0.06 3.17,0.3 1.24,0.36 2.5,0.94 3.78,1.73 1.28,-1.11 2.63,-1.79 4.07,-2.03 1.04,-0.16 2.08,0.16 3.12,0.96 1.04,0.79 1.87,1.67 2.51,2.63 1.04,1.52 1.56,3.24 1.56,5.15 0,1.92 -0.28,3.88 -0.84,5.87 -0.56,2 -1.32,3.96 -2.27,5.88 -0.96,1.91 -1.84,3.63 -2.64,5.15l-0.72 1.68c1.12,0.4 2.04,0.4 2.76,0 2.07,-0.4 3.53,-1.1 4.37,-2.1 0.84,-1 1.66,-2.1 2.46,-3.3 0.87,-1.35 1.69,-2.61 2.45,-3.77 0.76,-1.16 1.06,-1.7 0.9,-1.62 1.44,1.6 2.18,3.18 2.22,4.74 0.04,1.55 -0.26,3.01 -0.9,4.37 -0.4,0.64 -0.88,1.38 -1.44,2.22 -0.56,0.83 -1.24,1.63 -2.04,2.39 -0.79,0.76 -1.67,1.44 -2.63,2.04 -0.96,0.6 -2.04,0.94 -3.24,1.02 -1.19,0.16 -2.41,0.12 -3.65,-0.12 -1.24,-0.24 -2.42,-0.64 -3.54,-1.2 -1.59,2.71 -3.45,4.93 -5.57,6.65 -2.11,1.72 -4.09,2.58 -5.93,2.58 -2.55,0.08 -4.67,-0.52 -6.35,-1.8 -1.68,-1.28 -3.07,-2.84 -4.19,-4.68 -2.08,-3.51 -3.06,-7.24 -2.94,-11.2 0.12,-3.95 0.94,-7.63 2.46,-11.02 1.52,-3.4 3.47,-6.27 5.87,-8.63 2.4,-2.36 4.79,-3.65 7.19,-3.89zm1.68 19.05c-0.08,-1.76 0.1,-3.9 0.54,-6.41 0.43,-2.52 1.21,-4.85 2.33,-7.01 -0.48,-0.16 -1.04,-0.16 -1.68,0 -1.27,0.16 -2.69,1.14 -4.25,2.93 -1.56,1.8 -2.93,4.02 -4.13,6.65 -1.2,2.64 -2.06,5.46 -2.58,8.45 -0.52,3 -0.34,5.77 0.54,8.33 0.4,1.12 1.1,1.94 2.1,2.46 0.99,0.51 1.81,0.69 2.45,0.53 1.44,-0.24 2.84,-0.97 4.2,-2.21 1.35,-1.24 2.55,-2.82 3.59,-4.74 -0.88,-1.19 -1.6,-2.53 -2.16,-4.01 -0.55,-1.48 -0.87,-3.13 -0.95,-4.97zm8.38 -10.79c-0.4,0.88 -0.82,2 -1.25,3.36 -0.44,1.36 -0.8,2.76 -1.08,4.19 -0.28,1.44 -0.48,2.84 -0.6,4.2 -0.12,1.36 -0.06,2.51 0.18,3.47 0,0 0.08,-0.04 0.24,-0.12 0.48,-1.2 1,-2.57 1.55,-4.13 0.56,-1.56 1.1,-3.14 1.62,-4.73 0.52,-1.6 0.96,-3.1 1.32,-4.5 0.36,-1.4 0.54,-2.45 0.54,-3.17 0.08,-1.04 -0.18,-1.4 -0.78,-1.08 -0.6,0.32 -1.18,1.16 -1.74,2.51z"/>
   <path id="_10" class="fil1" d="M584.09 88.06c0.88,-0.16 1.94,-0.06 3.18,0.3 1.24,0.36 2.49,0.94 3.77,1.73 1.28,-1.11 2.64,-1.79 4.08,-2.03 1.03,-0.16 2.07,0.16 3.11,0.96 1.04,0.79 1.88,1.67 2.52,2.63 1.04,1.52 1.56,3.24 1.56,5.15 0,1.92 -0.28,3.88 -0.84,5.87 -0.56,2 -1.32,3.96 -2.28,5.88 -0.96,1.91 -1.84,3.63 -2.64,5.15l-0.71 1.68c1.11,0.4 2.03,0.4 2.75,0 2.08,-0.4 3.54,-1.1 4.37,-2.1 0.84,-1 1.66,-2.1 2.46,-3.3 0.88,-1.35 1.7,-2.61 2.46,-3.77 0.76,-1.16 1.06,-1.7 0.9,-1.62 1.43,1.6 2.17,3.18 2.21,4.74 0.04,1.55 -0.26,3.01 -0.9,4.37 -0.4,0.64 -0.88,1.38 -1.43,2.22 -0.56,0.83 -1.24,1.63 -2.04,2.39 -0.8,0.76 -1.68,1.44 -2.64,2.04 -0.96,0.6 -2.03,0.94 -3.23,1.02 -1.2,0.16 -2.42,0.12 -3.66,-0.12 -1.24,-0.24 -2.41,-0.64 -3.53,-1.2 -1.6,2.71 -3.46,4.93 -5.57,6.65 -2.12,1.72 -4.1,2.58 -5.93,2.58 -2.56,0.08 -4.68,-0.52 -6.35,-1.8 -1.68,-1.28 -3.08,-2.84 -4.2,-4.68 -2.08,-3.51 -3.05,-7.24 -2.93,-11.2 0.12,-3.95 0.93,-7.63 2.45,-11.02 1.52,-3.4 3.48,-6.27 5.87,-8.63 2.4,-2.36 4.8,-3.65 7.19,-3.89zm1.68 19.05c-0.08,-1.76 0.1,-3.9 0.54,-6.41 0.44,-2.52 1.22,-4.85 2.34,-7.01 -0.48,-0.16 -1.04,-0.16 -1.68,0 -1.28,0.16 -2.7,1.14 -4.25,2.93 -1.56,1.8 -2.94,4.02 -4.14,6.65 -1.2,2.64 -2.06,5.46 -2.58,8.45 -0.51,3 -0.33,5.77 0.54,8.33 0.4,1.12 1.1,1.94 2.1,2.46 1,0.51 1.82,0.69 2.46,0.53 1.44,-0.24 2.83,-0.97 4.19,-2.21 1.36,-1.24 2.56,-2.82 3.6,-4.74 -0.88,-1.19 -1.6,-2.53 -2.16,-4.01 -0.56,-1.48 -0.88,-3.13 -0.96,-4.97zm8.39 -10.79c-0.4,0.88 -0.82,2 -1.26,3.36 -0.44,1.36 -0.8,2.76 -1.08,4.19 -0.28,1.44 -0.48,2.84 -0.6,4.2 -0.12,1.36 -0.06,2.51 0.18,3.47 0,0 0.08,-0.04 0.24,-0.12 0.48,-1.2 1,-2.57 1.56,-4.13 0.56,-1.56 1.1,-3.14 1.62,-4.73 0.52,-1.6 0.95,-3.1 1.31,-4.5 0.36,-1.4 0.54,-2.45 0.54,-3.17 0.08,-1.04 -0.18,-1.4 -0.78,-1.08 -0.59,0.32 -1.17,1.16 -1.73,2.51z"/>
   <path id="_11" class="fil1" d="M628.55 104.59c1.19,1.36 1.83,2.76 1.91,4.2 0.08,1.43 -0.08,2.77 -0.48,4.01 -0.4,1.24 -0.94,2.34 -1.61,3.29 -0.68,0.96 -1.22,1.68 -1.62,2.16 -0.48,0.8 -1.14,1.8 -1.98,3 -0.84,1.2 -1.76,2.35 -2.75,3.47 -1,1.12 -2.1,2.06 -3.3,2.82 -1.2,0.76 -2.44,1.14 -3.71,1.14 -1.2,0 -2.28,-0.34 -3.24,-1.02 -0.96,-0.68 -1.8,-1.52 -2.51,-2.52 -0.72,-1 -1.34,-2.12 -1.86,-3.35 -0.52,-1.24 -0.9,-2.46 -1.14,-3.66 -0.48,-2.23 -0.42,-5.09 0.18,-8.57 0.6,-3.47 1.48,-7.24 2.64,-11.32 1.15,-4.07 2.51,-8.27 4.07,-12.58 1.56,-4.31 3.11,-8.37 4.67,-12.16 1.56,-3.79 2.96,-7.13 4.2,-10.01 1.23,-2.87 2.13,-4.99 2.69,-6.35 0.4,-1.11 1.02,-1.67 1.86,-1.67 0.84,0 1.82,1 2.93,2.99 0.48,0.8 0.8,1.46 0.96,1.98 0.16,0.52 0.24,0.96 0.24,1.32 0,0.36 -0.08,0.72 -0.24,1.08 -0.16,0.36 -0.36,0.77 -0.6,1.25 -0.56,1.36 -1.47,3.52 -2.75,6.47 -1.28,2.96 -2.66,6.33 -4.14,10.13 -1.47,3.79 -2.97,7.79 -4.49,11.98 -1.52,4.19 -2.79,8.15 -3.83,11.86 -1.04,3.72 -1.72,7.01 -2.04,9.89 -0.32,2.87 -0.04,4.87 0.84,5.99 0.56,0.64 1.4,0.6 2.51,-0.12 1.12,-0.72 2.28,-1.76 3.48,-3.12 1.12,-1.19 2.24,-2.53 3.35,-4.01 1.12,-1.48 2.12,-2.86 3,-4.13 0.88,-1.28 1.58,-2.36 2.1,-3.24 0.52,-0.88 0.74,-1.28 0.66,-1.2z"/>
   <g>
    <path class="fil2" d="M60.94 129.82l19.56 0 0 -58.97c0,-1.28 -1.04,-2.32 -2.32,-2.32l-14.92 0c-1.28,0 -2.32,1.04 -2.32,2.32l0 58.97z"/>
    <path class="fil3" d="M80.5 129.82l19.57 0 0 -45.19c0,-1.08 -0.88,-1.96 -1.96,-1.96l-15.65 0c-1.08,0 -1.96,0.88 -1.96,1.96l0 45.19z"/>
    <path class="fil4" d="M100.07 129.82l19.56 0 0 -68.77c0,-1.07 -0.88,-1.95 -1.95,-1.95l-15.66 0c-1.07,0 -1.95,0.88 -1.95,1.95l0 68.77z"/>
    <path class="fil5" d="M119.63 129.82l19.57 0 0 -64.05c0,-1.08 -0.88,-1.96 -1.96,-1.96l-15.65 0c-1.08,0 -1.96,0.88 -1.96,1.96l0 64.05z"/>
    <path class="fil6" d="M139.2 129.82l19.57 0 0 -82.91c0,-1.08 -0.88,-1.96 -1.96,-1.96l-15.65 0c-1.08,0 -1.96,0.88 -1.96,1.96l0 82.91z"/>
   </g>
  </g>
 </g>
</svg>
